<?xml version="1.0" encoding="UTF-8" standalone="no"?>
<svg width="194px" height="143px" viewBox="0 0 194 143" version="1.1" xmlns="http://www.w3.org/2000/svg" xmlns:xlink="http://www.w3.org/1999/xlink">
    <!-- Generator: Sketch 40.1 (33804) - http://www.bohemiancoding.com/sketch -->
    <title>outfordelivery</title>
    <desc>Created with Sketch.</desc>
    <defs>
        <polygon id="path-1" points="55.4783044 0.277259049 0.0898201537 0.277259049 0.0898201537 30.0320339 55.4783044 30.0320339 55.4783044 0.277259049"></polygon>
        <polygon id="path-3" points="193.727845 2.41953144 193.727845 0.039625435 0.000198364008 0.039625435 0.000198364008 2.41953144 193.727845 2.41953144"></polygon>
        <polygon id="path-5" points="0.171981595 16.262691 144.025957 16.262691 144.025957 0.0952755704 0.171981595 0.0952755704 0.171981595 16.262691"></polygon>
    </defs>
    <g id="mobile" stroke="none" stroke-width="1" fill="none" fill-rule="evenodd">
        <g id="st3-delivery" transform="translate(-91.000000, -50.000000)">
            <g id="outfordelivery" transform="translate(91.000000, 50.000000)">
                <path d="M63.925063,28.4810491 C63.7318564,24.5546009 60.5528748,21.36989 56.5538564,21.2413751 C55.2141059,21.1985367 53.9445763,21.5043547 52.8309607,22.0759288 C51.5197746,20.0395225 49.2635824,18.659177 46.6594597,18.5754837 C43.8061918,18.4838573 41.2699096,19.9720919 39.8885027,22.2504552 C38.8994597,21.7308424 37.7806867,21.4206613 36.5889157,21.3825828 C32.5680773,21.2532746 29.1764495,24.2602858 28.7606785,28.1974437 C24.8045067,28.3592773 21.5854556,31.5499379 21.4561223,35.5699958 C21.320838,39.7796529 24.6243922,43.3023104 28.8348667,43.4375684 C28.9181796,43.440345 29.000699,43.439155 29.0836151,43.439155 C29.0836151,43.439155 35.0186663,43.532368 38.3559423,43.5276082 C39.5477133,43.5260216 61.8374802,43.5180886 61.8374802,43.5180886 C61.8596969,43.5188819 61.881517,43.5212618 61.9037337,43.5220551 C66.1146049,43.6573131 69.6375497,40.3544002 69.7728339,36.1443465 C69.8914556,32.4606486 67.3765967,29.3033066 63.925063,28.4810491" id="Fill-1" fill="#FEFEFE"></path>
                <path d="M29.0835755,42.249321 C29.1613342,42.250511 35.069011,42.3357909 38.353919,42.3377742 C39.5460867,42.3361876 61.8370438,42.3282545 61.8370438,42.3282545 L61.9457472,42.3326177 C63.655645,42.3885455 65.298099,41.7705632 66.552553,40.594493 C67.8066102,39.4184228 68.5278618,37.8246791 68.583007,36.1059903 C68.6813955,33.0628838 66.6061112,30.3426513 63.6492973,29.6385957 L62.780463,29.4319406 L62.7364262,28.5398725 C62.5729742,25.2206969 59.8403117,22.5377495 56.5157309,22.4306538 C55.4243321,22.398525 54.3400744,22.6392922 53.3744384,23.1347093 L52.4143566,23.6273498 L51.830373,22.720209 C50.6826389,20.9376594 48.735101,19.8329863 46.6213342,19.7647624 C44.305236,19.698125 42.1117268,20.878955 40.9060703,22.8677632 L40.3256573,23.824882 L39.3346307,23.3036826 C38.4705571,22.8499139 37.5338822,22.6035936 36.5503935,22.5718615 C33.202009,22.4814251 30.2959763,24.989846 29.9444753,28.3221111 L29.8365652,29.3442807 L28.8094364,29.385929 C25.4610519,29.5231703 22.7533832,32.2564923 22.6454732,35.6081933 C22.590328,37.3264854 23.2076368,38.9638608 24.3839354,40.2176746 C25.5602339,41.471885 27.1546838,42.1925999 28.8733096,42.248131 C28.9284548,42.2497177 28.9828065,42.2497177 29.0363648,42.249321 L29.0835755,42.249321 Z M38.1107247,44.7176802 C34.762737,44.7176802 29.1228515,44.6300203 29.0649292,44.629227 L29.0407288,44.629227 C28.9590029,44.6288304 28.8780703,44.629227 28.7963444,44.6264504 C26.4425571,44.5510868 24.2585693,43.5634258 22.6474569,41.8455303 C21.0363444,40.1276348 20.1905202,37.8853667 20.2662953,35.531243 C20.4035632,31.2708146 23.6075387,27.740224 27.7347002,27.1032025 C28.6352728,23.0264236 32.3581685,20.0543176 36.6273587,20.1935421 C37.6148147,20.2252742 38.5685489,20.41527 39.4750724,20.7603564 C41.1956818,18.568463 43.8759763,17.2948166 46.6975059,17.386443 C49.250054,17.4681531 51.6240744,18.6529496 53.2272524,20.6028859 C54.298418,20.2042517 55.4429783,20.0134626 56.5922994,20.0523344 C60.8563321,20.1891789 64.4094282,23.420298 65.0287207,27.5645077 C68.6345816,28.8091985 71.0871542,32.3044871 70.9625816,36.1825439 C70.8868065,38.536271 69.8989538,40.7198347 68.1807247,42.3306345 C66.4624957,43.9418308 64.2170151,44.7851108 61.8656082,44.7109371 L61.8057022,44.7081606 C60.8630765,44.7085572 39.5226798,44.7160936 38.3570928,44.7176802 L38.1107247,44.7176802 Z" id="Fill-3" fill="#0090CD"></path>
                <path d="M146.654637,12.456666 C146.442388,8.14982945 142.955545,4.65652409 138.568924,4.51531633 C137.099443,4.46811486 135.706928,4.80407826 134.485402,5.43078684 C133.047263,3.19724506 130.572077,1.68283154 127.715635,1.59120515 C124.585451,1.4904558 121.803991,3.12307132 120.28849,5.62236927 C119.203439,5.05198513 117.976359,4.71205523 116.66914,4.67001022 C112.258318,4.52840581 108.5382,7.82655888 108.082359,12.145295 C103.742551,12.3229946 100.211275,15.8230431 100.069643,20.2326122 C99.9212671,24.8504232 103.544981,28.7142006 108.163688,28.8625481 C108.254936,28.8657213 108.34539,28.8645313 108.43624,28.8645313 C108.43624,28.8645313 114.946547,28.9664706 118.607157,28.9617108 C119.914375,28.9597275 144.364723,28.9510012 144.364723,28.9510012 C144.38932,28.9521912 144.413124,28.9545711 144.437324,28.9553644 C149.056032,29.1037119 152.920956,25.4807016 153.069333,20.8628907 C153.199063,16.8222069 150.440613,13.3586504 146.654637,12.456666" id="Fill-5" fill="#FEFEFE"></path>
                <g id="Group-9" transform="translate(98.785276, 0.119392)">
                    <mask id="mask-2" fill="white">
                        <use xlink:href="#path-1"></use>
                    </mask>
                    <g id="Clip-8"></g>
                    <path d="M9.65088507,27.555345 C9.73419796,27.556535 16.2052286,27.6461781 19.820611,27.6521279 C21.1278299,27.6505413 45.5793677,27.6418149 45.5793677,27.6418149 L45.6924352,27.6461781 C47.6082348,27.7104356 49.4315967,27.0194695 50.8304597,25.7089346 C52.2285292,24.3980031 53.0330937,22.6210066 53.0945865,20.7047856 C53.20329,17.3126262 50.8899689,14.2798327 47.5935558,13.4948603 L46.7243247,13.2878085 L46.6806847,12.3957404 C46.4985865,8.69577989 43.4521121,5.70423804 39.7450855,5.58484609 C38.5318912,5.54597429 37.3198871,5.81768023 36.243564,6.37021507 L35.2830855,6.86285561 L34.6994986,5.95571477 C33.4200507,3.96809661 31.2487583,2.7368919 28.8917971,2.66073491 C26.3019566,2.58259467 23.8648564,3.90383915 22.5207419,6.11992829 L21.9407256,7.07704715 L20.9493022,6.55624439 C19.9860466,6.04972106 18.9414618,5.77523857 17.845699,5.73993663 C14.1001898,5.63046095 10.8728074,8.43597348 10.4804434,12.1510068 L10.3725333,13.1727797 L9.3454045,13.2148247 C5.61259059,13.3671387 2.59388712,16.4142117 2.47407526,20.1514574 C2.41218569,22.0672818 3.10050879,23.892273 4.41169489,25.2904678 C5.72327771,26.6882659 7.50061922,27.4926742 9.41641881,27.5541551 C9.47592802,27.5557417 9.53266012,27.5549484 9.58939223,27.555345 L9.65088507,27.555345 Z M19.5559935,30.0320339 C15.8846724,30.0320339 9.69571534,29.9360443 9.63223885,29.935251 L9.59573988,29.935251 C9.51163354,29.935251 9.4247501,29.9356477 9.33786667,29.9324745 C6.78849243,29.8507644 4.42161309,28.7802033 2.67521636,26.9183235 C0.92921636,25.0564437 0.0127746421,22.6257664 0.0948973415,20.0749038 C0.244067076,15.4297239 3.75669693,11.5849858 8.26749448,10.9281317 C9.21329407,6.46977447 13.2714249,3.20731999 17.9222675,3.36161723 C19.0212041,3.39652252 20.0820548,3.61309396 21.0881571,4.00696841 C22.9507951,1.58977721 25.8953104,0.178096299 28.9679689,0.282415512 C31.7625211,0.372058639 34.3598994,1.68140359 36.0979648,3.83283862 C37.2802143,3.38105313 38.5493472,3.16170513 39.821654,3.20652669 C44.4677358,3.35566747 48.3346438,6.89379439 48.976153,11.4179957 C52.9196294,12.7475699 55.6094454,16.5546262 55.4733677,20.7817359 C55.3916417,23.3325985 54.3208728,25.6990183 52.4586315,27.445076 C50.5963902,29.1911337 48.1644474,30.112554 45.613883,30.0252908 L45.5460425,30.0217209 C44.5284352,30.0221176 21.1020425,30.0304473 19.8237849,30.0320339 L19.5559935,30.0320339 Z" id="Fill-7" fill="#0090CD" mask="url(#mask-2)"></path>
                </g>
                <path d="M28.6810949,64.048903 C28.6810949,64.048903 27.9515121,58.1935409 34.5395775,58.1963175 C41.1276429,58.1990941 87.487692,58.2181333 87.487692,58.2181333 C87.487692,58.2181333 114.328326,57.0095377 121.644784,66.0389011 L142.133406,83.612127 L154.819974,87.2767856 C154.819974,87.2767856 161.934498,89.6265461 162.625201,94.8425068 L164.794113,106.496113 C164.794113,106.496113 166.179091,111.784264 155.427762,113.25346 C155.427762,113.25346 155.606686,99.2108243 141.128494,97.9046525 C126.650301,96.5984808 126.730044,112.808021 126.730044,112.808021 L69.2651808,113.217761 C69.2651808,113.217761 69.9773076,98.0815589 55.0762033,97.9022726 C40.3683055,97.7249696 40.6174507,112.112691 40.6174507,112.112691 L25.7338025,111.130583 L28.6810949,64.048903 Z" id="Fill-10" fill="#FEFEFE"></path>
                <path d="M54.8069836,96.313963 C54.9025951,96.313963 54.9986033,96.3143597 55.0954049,96.3155496 C59.8934335,96.373064 63.7174949,97.8779579 66.4608691,100.78779 C69.8409918,104.372721 70.6360348,109.13055 70.8113885,111.619932 L125.230571,111.232007 C125.484476,108.559769 126.479867,103.120891 130.360661,99.5577749 C133.135773,97.0096889 136.805507,95.9220718 141.271078,96.3246726 C149.492076,97.0660133 153.349859,101.659629 155.137912,105.381802 C156.239229,107.674444 156.694673,109.90164 156.883119,111.402964 C160.525875,110.674316 162.087793,109.476033 162.754693,108.54192 C163.342247,107.718473 163.272423,107.01283 163.252587,106.877572 C163.239098,106.835924 163.245049,106.84584 163.233941,106.785946 L161.065029,95.1323397 C161.059871,95.1053674 161.055507,95.0779985 161.051937,95.0502329 C160.523098,91.0535774 154.729282,88.9271314 154.342076,88.7898902 L141.693196,85.1363378 C141.474996,85.0732703 141.272665,84.9645879 141.100485,84.8166371 L120.611466,67.2434112 C120.538865,67.181137 120.472215,67.1121197 120.411515,67.0375493 C114.823204,60.1405817 94.8003415,59.4750013 87.5592618,59.8034284 C87.5354581,59.8046183 87.5112577,59.805015 87.487454,59.805015 L34.5389427,59.7828025 L34.5349755,59.7828025 C32.9436994,59.7828025 31.7868405,60.1790569 31.096137,60.9604593 C30.0888446,62.1000376 30.2534867,63.8357824 30.2558671,63.8528384 C30.2677689,63.9504146 30.2709427,64.0495773 30.2649918,64.1479468 L27.4160879,109.65175 L39.1322597,110.424426 C39.3948937,108.064352 40.3216503,103.748393 43.5728364,100.481178 C46.3245419,97.7149343 50.1033763,96.313963 54.8069836,96.313963 M155.427524,114.839945 C155.042697,114.839945 154.668583,114.700323 154.376591,114.442104 C154.030247,114.136286 153.834661,113.694813 153.840611,113.233111 C153.844579,112.723415 153.78864,100.639839 140.986227,99.4847911 C137.45019,99.1670737 134.596922,99.9766384 132.507753,101.894843 C128.330603,105.730061 128.316718,112.730158 128.317115,112.800365 C128.321479,113.675377 127.616493,114.388556 126.741311,114.394902 L69.2764479,114.804246 C68.8348896,114.79314 68.4226892,114.63091 68.1211759,114.317159 C67.8188691,114.003011 67.6593845,113.578198 67.6800143,113.143468 C67.6827914,113.084764 67.8998016,106.922791 64.1360429,102.948348 C62.006407,100.699733 58.951998,99.5355624 55.0569223,99.4887576 C51.1118589,99.436003 48.0027014,100.527587 45.822681,102.718687 C42.1489796,106.411508 42.2029346,112.028879 42.2041247,112.085203 C42.2116626,112.528659 42.033135,112.955456 41.7117853,113.26167 C41.3908323,113.567488 40.9564151,113.726545 40.5128732,113.695607 L25.6292249,112.713895 C24.75682,112.656381 24.0950777,111.903934 24.1498262,111.031302 L27.089184,64.0769462 C27.0300716,63.3605945 26.9673885,60.8398774 28.7173558,58.859399 C30.0364765,57.3668013 31.9943292,56.6095945 34.5349755,56.6095945 L34.5401329,56.6095945 L87.4533354,56.631807 C89.0180307,56.5639796 115.002922,55.591788 122.782759,64.9245894 L142.9052,82.1836678 L155.260501,85.7523368 C155.279544,85.7578899 155.298984,85.7638397 155.318027,85.7701861 C155.646121,85.8784718 163.350182,88.4904187 164.192436,94.5909111 L166.348256,106.1755 C166.441883,106.60428 166.708881,108.340818 165.45046,110.222927 C163.856804,112.605213 160.557217,114.153738 155.64255,114.825269 C155.570742,114.835185 155.498935,114.839945 155.427524,114.839945" id="Fill-12" fill="#0090CD"></path>
                <path d="M54.9325877,122.518275 C52.4700969,122.517482 50.1555857,121.557586 48.4151399,119.816288 C46.6746941,118.074594 45.7165959,115.759342 45.7173894,113.297329 C45.7197697,108.21742 49.8552626,104.084316 54.9361583,104.084316 C60.0234016,104.086696 64.1569108,108.222973 64.1553239,113.305262 C64.1529436,118.385172 60.0174507,122.518275 54.936555,122.518275 L54.9325877,122.518275 Z" id="Fill-14" fill="#FEFEFE"></path>
                <path d="M54.9362773,102.497871 C48.9710748,102.498268 44.1333734,107.332254 44.1305963,113.297091 C44.128216,119.263516 48.9643305,124.102658 54.9319133,124.105038 L54.936674,124.105038 C60.9018765,124.105038 65.7395779,119.270655 65.7419583,113.305818 C65.7443387,107.339393 60.9086209,102.500251 54.9406413,102.497871 L54.9362773,102.497871 Z M54.9394511,105.671079 C56.9782364,105.671872 58.8944327,106.466364 60.3349521,107.908191 C61.7758683,109.350017 62.5689276,111.266238 62.5681342,113.304628 C62.5665472,117.510318 59.1427845,120.93183 54.9331035,120.93183 C52.8947149,120.931036 50.9785186,120.136544 49.5376025,118.694718 C48.0966863,117.252892 47.303627,115.336274 47.3044204,113.298281 C47.3064041,109.092987 50.7301669,105.671476 54.9362773,105.671079 L54.9394511,105.671079 L54.9394511,105.671079 Z" id="Fill-16" fill="#0090CD"></path>
                <path d="M141.040182,122.553894 C138.577691,122.553101 136.262783,121.593206 134.522337,119.851511 C132.782288,118.110213 131.82419,115.794961 131.824984,113.333345 C131.826967,108.253039 135.96246,104.119936 141.043753,104.119936 C146.130599,104.121919 150.264505,108.258196 150.262521,113.340882 C150.260141,118.420791 146.124648,122.553894 141.044149,122.553894 L141.040182,122.553894 Z" id="Fill-18" fill="#FEFEFE"></path>
                <path d="M141.043673,102.533411 C135.078471,102.533808 130.240769,107.367793 130.237992,113.332631 C130.235612,119.299056 135.071726,124.138198 141.039309,124.140578 L141.043673,124.140578 C147.009272,124.140578 151.846974,119.306195 151.849354,113.341358 C151.851735,107.374933 147.016017,102.535791 141.048434,102.533411 L141.043673,102.533411 Z M141.046847,105.706619 C143.085632,105.707412 145.001829,106.501904 146.442348,107.943731 C147.883264,109.385557 148.676324,111.301778 148.67553,113.340168 C148.673943,117.545858 145.25018,120.96737 141.040499,120.96737 C136.832405,120.965386 133.410229,117.541098 133.411816,113.333821 C133.4138,109.128527 136.837563,105.707016 141.043673,105.706619 L141.046847,105.706619 L141.046847,105.706619 Z" id="Fill-20" fill="#0090CD"></path>
                <path d="M110.971888,80.8314052 L127.705876,80.8381482 L115.417622,70.1658564 L110.976252,70.1642698 L110.971888,80.8314052 Z M131.954833,84.0129428 L131.954039,84.0129428 L109.383786,84.0038199 C108.507413,84.0034232 107.79727,83.2926246 107.797667,82.4164226 L107.803221,68.5764759 C107.803221,68.1556291 107.97064,67.7518384 108.268583,67.4547468 C108.566129,67.1572586 108.969602,66.9902685 109.390133,66.9902685 L109.39053,66.9902685 L116.011524,66.9930451 C116.393573,66.9930451 116.762927,67.1314763 117.051348,67.3821597 L132.99545,81.2288495 C133.495328,81.6631823 133.673062,82.3616847 133.441373,82.9824435 C133.209287,83.6020124 132.616972,84.0129428 131.954833,84.0129428 L131.954833,84.0129428 Z" id="Fill-22" fill="#0090CD"></path>
                <path d="M100.042666,114.411919 L100.042269,114.411919 C99.1655002,114.411522 98.4553571,113.700723 98.4557538,112.824521 L98.4783673,58.5698041 C98.478764,57.6939987 99.1893039,56.9839934 100.065279,56.9839934 L100.065676,56.9839934 C100.942445,56.98439 101.652588,57.6951886 101.652191,58.5713907 L101.629578,112.826108 C101.629181,113.701913 100.918641,114.411919 100.042666,114.411919" id="Fill-24" fill="#0090CD"></path>
                <path d="M69.2393141,113.517153 L69.2389174,113.517153 C68.3621485,113.516757 67.6520053,112.805958 67.652402,111.929756 L67.6746188,58.2097243 C67.6750155,57.3339189 68.3855554,56.6239136 69.2615309,56.6239136 L69.2623243,56.6239136 C70.1386965,56.6243102 70.8488397,57.3351088 70.8484429,58.2113109 L70.8262262,111.931343 C70.8258294,112.807148 70.1152896,113.517153 69.2393141,113.517153" id="Fill-26" fill="#0090CD"></path>
                <path d="M114.287106,93.4386002 L114.286709,93.4386002 L109.975863,93.4370136 C109.09949,93.436617 108.389347,92.726215 108.389744,91.850013 C108.390141,90.9738109 109.100284,90.2638056 109.976656,90.2638056 L109.977053,90.2638056 L114.287503,90.2653922 C115.164272,90.2657889 115.874415,90.9761908 115.874018,91.8523929 C115.873621,92.728595 115.163081,93.4386002 114.287106,93.4386002" id="Fill-28" fill="#0090CD"></path>
                <path d="M58.5470973,113.302922 C58.5463039,115.296887 56.9288438,116.912446 54.9348888,116.911653 C52.940537,116.910463 51.3246638,115.293713 51.3254573,113.299749 C51.3262507,111.306181 52.9437108,109.690621 54.9376658,109.691415 C56.9320176,109.692208 58.5478908,111.308957 58.5470973,113.302922" id="Fill-30" fill="#0090CD"></path>
                <path d="M144.654533,113.338462 C144.653739,115.332427 143.036279,116.947986 141.042324,116.947193 C139.047973,116.946003 137.432099,115.329253 137.432893,113.335289 C137.433686,111.341721 139.051146,109.726161 141.045101,109.726955 C143.039453,109.727748 144.655326,111.344497 144.654533,113.338462" id="Fill-32" fill="#0090CD"></path>
                <path d="M115.184941,72.3879747 L122.81045,79.079477" id="Fill-34" fill="#FEFEFE"></path>
                <path d="M122.810569,79.4760487 C122.717735,79.4760487 122.624107,79.4435233 122.549126,79.3776793 L114.92322,72.6861769 C114.758181,72.5417959 114.741915,72.2911125 114.886324,72.1265023 C115.031526,71.9614955 115.281862,71.9456295 115.446504,72.0896138 L123.072013,78.7811162 C123.237052,78.9254971 123.253318,79.1761805 123.108909,79.3407907 C123.030357,79.4304338 122.920463,79.4760487 122.810569,79.4760487" id="Fill-36" fill="#0090CD"></path>
                <path d="M120.120952,79.1417116 L116.757888,76.3996632" id="Fill-38" fill="#FEFEFE"></path>
                <path d="M120.120634,79.5384022 C120.032561,79.5384022 119.94409,79.5094467 119.870299,79.4491558 L116.507236,76.7071074 C116.337436,76.5686762 116.311649,76.3187861 116.450107,76.1490194 C116.588962,75.9792528 116.838107,75.9534705 117.008303,76.0922983 L120.371763,78.8343467 C120.541563,78.9727779 120.566953,79.222668 120.428495,79.3924347 C120.349943,79.4884242 120.235685,79.5384022 120.120634,79.5384022" id="Fill-40" fill="#0090CD"></path>
                <g id="Group-44" transform="translate(0.000000, 124.667806)">
                    <mask id="mask-4" fill="white">
                        <use xlink:href="#path-3"></use>
                    </mask>
                    <g id="Clip-43"></g>
                    <path d="M192.537859,2.41953144 L1.19038241,2.41953144 C0.53300409,2.41953144 0.000198364008,1.88682915 0.000198364008,1.22957844 C0.000198364008,0.572327729 0.53300409,0.039625435 1.19038241,0.039625435 L192.537859,0.039625435 C193.195237,0.039625435 193.728043,0.572327729 193.728043,1.22957844 C193.728043,1.88682915 193.195237,2.41953144 192.537859,2.41953144" id="Fill-42" fill="#0090CD" mask="url(#mask-4)"></path>
                </g>
                <path d="M41.2883971,136.273418 L21.4519963,136.273418 C20.794618,136.273418 20.2618123,135.740715 20.2618123,135.083465 C20.2618123,134.426214 20.794618,133.893512 21.4519963,133.893512 L41.2883971,133.893512 C41.9457755,133.893512 42.4785812,134.426214 42.4785812,135.083465 C42.4785812,135.740715 41.9457755,136.273418 41.2883971,136.273418 M80.9611988,136.273418 L61.124798,136.273418 C60.4674196,136.273418 59.9346139,135.740715 59.9346139,135.083465 C59.9346139,134.426214 60.4674196,133.893512 61.124798,133.893512 L80.9611988,133.893512 C81.6185771,133.893512 82.1513828,134.426214 82.1513828,135.083465 C82.1513828,135.740715 81.6185771,136.273418 80.9611988,136.273418 M120.634,136.273418 L100.7976,136.273418 C100.140221,136.273418 99.6074155,135.740715 99.6074155,135.083465 C99.6074155,134.426214 100.140221,133.893512 100.7976,133.893512 L120.634,133.893512 C121.291379,133.893512 121.824184,134.426214 121.824184,135.083465 C121.824184,135.740715 121.291379,136.273418 120.634,136.273418 M160.306802,136.273418 L140.470401,136.273418 C139.813023,136.273418 139.280217,135.740715 139.280217,135.083465 C139.280217,134.426214 139.813023,133.893512 140.470401,133.893512 L160.306802,133.893512 C160.96418,133.893512 161.496986,134.426214 161.496986,135.083465 C161.496986,135.740715 160.96418,136.273418 160.306802,136.273418" id="Fill-45" fill="#0090CD"></path>
                <path d="M23.4844736,58.5703991 L6.40017505,58.5703991" id="Fill-47" fill="#FEFEFE"></path>
                <path d="M23.4844339,59.7604711 L6.40013538,59.7604711 C5.74315378,59.7604711 5.20995133,59.2277688 5.20995133,58.570518 C5.20995133,57.9132673 5.74315378,57.380565 6.40013538,57.380565 L23.4844339,57.380565 C24.1418123,57.380565 24.674618,57.9132673 24.674618,58.570518 C24.674618,59.2277688 24.1418123,59.7604711 23.4844339,59.7604711" id="Fill-49" fill="#0090CD"></path>
                <path d="M21.9162871,63.4199335 L1.65459387,63.4199335" id="Fill-51" fill="#FEFEFE"></path>
                <path d="M21.9163268,64.6097675 L1.65463354,64.6097675 C0.997255215,64.6097675 0.464449489,64.0770652 0.464449489,63.4198145 C0.464449489,62.7625638 0.997255215,62.2298615 1.65463354,62.2298615 L21.9163268,62.2298615 C22.5737051,62.2298615 23.1065108,62.7625638 23.1065108,63.4198145 C23.1065108,64.0770652 22.5737051,64.6097675 21.9163268,64.6097675" id="Fill-53" fill="#0090CD"></path>
                <path d="M21.5645084,68.4928222 L13.8870278,68.4928222" id="Fill-55" fill="#FEFEFE"></path>
                <path d="M21.5645481,69.6829338 L13.8870675,69.6829338 C13.2296892,69.6829338 12.6968834,69.1502315 12.6968834,68.4929808 C12.6968834,67.8357301 13.2296892,67.3030278 13.8870675,67.3030278 L21.5645481,67.3030278 C22.2219264,67.3030278 22.7547321,67.8357301 22.7547321,68.4929808 C22.7547321,69.1502315 22.2219264,69.6829338 21.5645481,69.6829338" id="Fill-57" fill="#0090CD"></path>
                <path d="M10.1404474,68.3803716 L2.46296687,68.3803716" id="Fill-59" fill="#FEFEFE"></path>
                <path d="M10.1404078,69.5702056 L2.4629272,69.5702056 C1.80554888,69.5702056 1.27274315,69.0375033 1.27274315,68.3802526 C1.27274315,67.7230019 1.80554888,67.1902996 2.4629272,67.1902996 L10.1404078,67.1902996 C10.7977861,67.1902996 11.3305918,67.7230019 11.3305918,68.3802526 C11.3305918,69.0375033 10.7977861,69.5702056 10.1404078,69.5702056" id="Fill-61" fill="#0090CD"></path>
                <g id="Group-65" opacity="0.15" transform="translate(23.803681, 126.651061)">
                    <mask id="mask-6" fill="white">
                        <use xlink:href="#path-5"></use>
                    </mask>
                    <g id="Clip-64"></g>
                    <path d="M144.025957,0.0952755704 C144.025957,9.02428625 111.823147,16.2627704 72.0991677,16.2627704 C32.3747914,16.2627704 0.171981595,9.02428625 0.171981595,0.0952755704" id="Fill-63" fill="#0090CD" mask="url(#mask-6)"></path>
                </g>
            </g>
        </g>
    </g>
</svg>